<?xml version="1.0" encoding="utf-8"?>
<!-- Generator: Adobe Illustrator 24.1.2, SVG Export Plug-In . SVG Version: 6.00 Build 0)  -->
<svg version="1.1" xmlns="http://www.w3.org/2000/svg" xmlns:xlink="http://www.w3.org/1999/xlink" x="0px" y="0px"
	 viewBox="0 0 250 250" style="enable-background:new 0 0 250 250;" xml:space="preserve">
<g id="Layer_2" style="display:none;">
	<circle style="display:inline;fill:none;stroke:#ED1C24;stroke-width:5;stroke-miterlimit:10;" cx="64" cy="47" r="29"/>
	<circle style="display:inline;fill:none;stroke:#ED1C24;stroke-width:5;stroke-miterlimit:10;" cx="119.5" cy="18.5" r="29"/>
	<circle style="display:inline;fill:none;stroke:#ED1C24;stroke-width:5;stroke-miterlimit:10;" cx="119.5" cy="18.5" r="29"/>
	<circle style="display:inline;fill:none;stroke:#ED1C24;stroke-width:5;stroke-miterlimit:10;" cx="125.5" cy="116.5" r="29"/>
	<circle style="display:inline;fill:none;stroke:#ED1C24;stroke-width:5;stroke-miterlimit:10;" cx="173.5" cy="34.5" r="29"/>
	<circle style="display:inline;fill:none;stroke:#ED1C24;stroke-width:5;stroke-miterlimit:10;" cx="81.5" cy="156.5" r="11.08"/>
	<circle style="display:inline;fill:none;stroke:#ED1C24;stroke-width:5;stroke-miterlimit:10;" cx="162.5" cy="153.5" r="11.08"/>
	<circle style="display:inline;fill:none;stroke:#ED1C24;stroke-width:5;stroke-miterlimit:10;" cx="139.5" cy="160.5" r="11.08"/>
	<circle style="display:inline;fill:none;stroke:#ED1C24;stroke-width:5;stroke-miterlimit:10;" cx="121.5" cy="182.5" r="11.08"/>
	<circle style="display:inline;fill:none;stroke:#ED1C24;stroke-width:5;stroke-miterlimit:10;" cx="105.5" cy="160.5" r="11.08"/>
	<circle style="display:inline;fill:none;stroke:#ED1C24;stroke-width:5;stroke-miterlimit:10;" cx="151.5" cy="82.5" r="11.08"/>
	<circle style="display:inline;fill:none;stroke:#ED1C24;stroke-width:5;stroke-miterlimit:10;" cx="87.5" cy="99.5" r="11.08"/>
	<circle style="display:inline;fill:none;stroke:#ED1C24;stroke-width:5;stroke-miterlimit:10;" cx="90.5" cy="34.5" r="6.85"/>
	<circle style="display:inline;fill:none;stroke:#ED1C24;stroke-width:5;stroke-miterlimit:10;" cx="74.5" cy="82.5" r="6.85"/>
	<circle style="display:inline;fill:none;stroke:#ED1C24;stroke-width:5;stroke-miterlimit:10;" cx="168.5" cy="71.5" r="6.85"/>
	<circle style="display:inline;fill:none;stroke:#ED1C24;stroke-width:5;stroke-miterlimit:10;" cx="147.5" cy="27.5" r="6.85"/>
</g>
<g id="Layer_3" style="display:none;">
	<text transform="matrix(1 0 0 1 50.4135 241.7459)" style="display:inline;fill:#050528; font-family:'Gobold'; font-size:48px;">duChef</text>
	<g style="display:inline;">
		<g>
			<path style="fill:#050528;" d="M151.7,93.05c-2.99-0.57-6.03-0.85-9.05-0.87c-3.01-0.02-5.97,0.04-8.83,0.33
				c-1.43,0.26-2.83-0.02-4.22,0.04c-0.7-0.01-1.39-0.01-2.08,0.03c-0.69,0.02-1.38,0.07-2.06,0.14c-2.74,0.25-5.41,0.82-8.02,1.76
				c-5.24,1.81-10.26,5.11-15.33,8.61l-7.68,5.33c-1.3,0.88-2.6,1.76-3.92,2.62l-0.99,0.65c-0.24,0.16-0.86,0.58-1.45,0.81
				c-1.2,0.51-2.59,0.54-3.73,0.23c-1.15-0.3-2.09-0.87-2.88-1.52c-0.8-0.65-1.44-1.42-1.97-2.25c-0.52-0.84-0.92-1.76-1.15-2.76
				c-0.11-0.48-0.19-1.05-0.19-1.5c0-0.44-0.02-0.91,0.01-1.31c0.17-3.3,0.7-6.34,1.02-9.45c0.32-3.09,0.48-6.21,0.45-9.23
				c-0.02-0.75-0.04-1.48-0.12-2.17c-0.1-0.65-0.22-1.06-0.45-1.44c-0.43-0.77-1.18-1.28-1.92-1.4c-0.19-0.03-0.37-0.06-0.55-0.05
				c-0.2,0-0.27,0.04-0.77,0.02l-2.39-0.05c-1.59-0.03-3.17-0.1-4.75-0.19l-2.37-0.14c-0.81-0.07-1.53-0.11-2.45-0.22
				c-1.54-0.17-3.11-0.38-4.7-0.64c-3.18-0.54-6.43-1.31-9.68-2.56c-3.24-1.23-6.51-2.93-9.44-5.34c-1.44-1.23-2.8-2.61-3.96-4.16
				c-1.15-1.55-2.1-3.25-2.83-5c-1.43-3.51-1.99-7.2-1.87-10.71c0.22-7.07,2.77-13.45,6.25-18.93c1.78-2.73,3.85-5.24,6.2-7.43
				c1.18-1.09,2.43-2.09,3.74-3c1.32-0.91,2.74-1.64,4.17-2.31c5.76-2.62,12.15-3.59,18.36-2.96c3.12,0.24,6.13,1.16,9.09,2.1
				c2.96,0.95,5.9,2.01,8.63,3.53c2.73,1.51,5.24,3.41,7.54,5.52c1.14,1.07,2.22,2.24,3.08,3.57c0.88,1.32,1.51,2.89,1.55,4.55
				c0.05,1.66-0.59,3.33-1.68,4.58c-1.08,1.26-2.5,2.18-4.03,2.77c-1.54,0.59-3.21,0.85-4.88,0.7c-1.67-0.13-3.37-0.71-4.75-1.81
				c-1.39-1.09-2.37-2.65-2.91-4.29c-0.55-1.64-0.7-3.35-0.68-5.01c0.09-3.33,0.89-6.52,1.93-9.55c0.52-1.5,1.16-3.04,1.75-4.44
				l1.77-4.3c1.19-2.88,2.42-5.82,4.04-8.61c1.59-2.8,3.4-5.56,5.61-8.08c1.14-1.23,2.32-2.44,3.67-3.5
				c1.33-1.06,2.73-2.02,4.2-2.86c5.88-3.28,12.77-4.95,19.69-3.87c3.4,0.56,6.74,1.71,9.64,3.5c1.48,0.85,2.81,1.89,4.12,2.94
				c1.25,1.11,2.45,2.26,3.52,3.51c2.19,2.46,4.01,5.16,5.59,7.95c1.66,2.81,2.72,5.86,3.68,8.83c0.48,1.49,1,2.95,1.58,4.37
				c0.31,0.71,0.61,1.41,0.95,2.09c0.34,0.66,0.73,1.39,1.04,2.14c1.23,2.98,1.82,6.23,1.38,9.52c-0.24,1.63-0.83,3.3-1.99,4.64
				c-1.14,1.35-2.8,2.2-4.46,2.56c-1.61,0.39-3.52,0.39-5.19-0.34c-1.68-0.71-3.04-2.01-3.95-3.53c-1.8-3.02-2.1-6.98-0.27-10.27
				c1.7-2.91,3.83-5.34,6.18-7.58c2.35-2.23,4.91-4.22,7.66-5.96c2.74-1.74,5.67-3.25,8.81-4.38c1.57-0.56,3.2-1.04,4.89-1.36
				c1.73-0.32,3.41-0.48,5.1-0.52c3.4-0.1,6.86,0.31,10.21,1.32c6.68,1.97,12.92,6.63,16.33,13.09c1.77,3.18,2.78,6.73,3.16,10.28
				c0.38,3.57,0.09,7.07-0.71,10.54c-0.87,3.45-2.34,6.77-4.36,9.64c-1.98,2.9-4.44,5.36-7.07,7.47
				c-5.32,4.16-11.26,6.97-17.28,9.18c-1.51,0.54-3.03,1.06-4.55,1.53l-1.15,0.35c-0.25,0.08-0.43,0.14-0.64,0.25
				c-0.4,0.19-0.75,0.47-1.04,0.8c-0.3,0.33-0.51,0.72-0.65,1.14c-0.07,0.22-0.12,0.4-0.14,0.67L164,72.47l-0.55,4.62l-0.49,4.63
				l-0.24,2.31l-0.12,1.2l-0.09,0.77l-0.18,0.83c-0.57,2.2-2.12,4.16-4.09,5.25C156.25,93.2,153.88,93.5,151.7,93.05z M153.05,87.31
				c0.85,0.23,1.75,0.19,2.52-0.17c0.77-0.36,1.34-0.99,1.63-1.77l0.09-0.31l0.05-0.38l0.15-1.11l0.3-2.31l0.6-4.62l0.53-4.63
				l0.14-1.24c0.05-0.5,0.18-1.08,0.34-1.6c0.34-1.06,0.87-2.06,1.59-2.91c0.71-0.86,1.59-1.57,2.57-2.09
				c0.48-0.26,1.02-0.47,1.52-0.64l1.08-0.35c1.43-0.48,2.85-0.98,4.24-1.54c5.55-2.22,10.82-5.18,14.97-9.09
				c4.16-3.89,7.03-8.69,7.99-13.9c0.27-1.3,0.4-2.63,0.48-3.98c0.04-1.35,0.01-2.68-0.11-3.99c-0.14-1.31-0.4-2.59-0.76-3.84
				c-0.34-1.25-0.81-2.46-1.39-3.61c-1.15-2.31-2.78-4.37-4.74-6.11c-1.96-1.74-4.31-3.09-6.82-4.1c-2.54-0.96-5.27-1.55-8.08-1.73
				c-0.7-0.04-1.41-0.07-2.12-0.06c-0.72-0.01-1.36,0.03-2.06,0.09c-1.37,0.12-2.77,0.39-4.17,0.74
				c-5.58,1.45-11.02,4.29-15.64,8.02c-2.28,1.88-4.42,4.04-6.02,6.4c-1.37,2.09-1.42,5.17-0.16,7.53c0.62,1.18,1.55,2.18,2.72,2.76
				c1.17,0.58,2.52,0.7,3.93,0.45c1.39-0.2,2.64-0.84,3.55-1.83c0.92-0.99,1.47-2.34,1.73-3.76c0.48-2.87-0.09-5.96-1.2-8.7
				c-0.57-1.32-1.39-2.76-2.02-4.17c-0.69-1.41-1.37-2.81-2.11-4.17c-1.49-2.73-2.99-5.37-4.71-7.77c-1.75-2.44-3.68-4.73-5.85-6.7
				c-4.29-3.99-9.44-6.67-14.91-7.37c-2.71-0.38-5.52-0.23-8.29,0.27c-1.38,0.26-2.76,0.6-4.11,1.04c-1.34,0.45-2.65,1.01-3.92,1.62
				c-2.54,1.26-4.82,2.89-6.83,4.94c-1.98,2.06-3.74,4.42-5.21,7.03c-1.46,2.6-2.89,5.29-4.28,8.05l-2.1,4.17
				c-0.72,1.41-1.37,2.71-1.98,4.1c-1.21,2.73-2.18,5.58-2.5,8.46c-0.32,2.84,0.17,5.84,2.19,7.7c0.99,0.92,2.31,1.51,3.71,1.73
				c1.41,0.22,2.9,0.07,4.29-0.37c1.39-0.44,2.7-1.2,3.68-2.26c0.99-1.05,1.6-2.45,1.62-3.9c0.02-1.46-0.5-2.91-1.3-4.18
				c-0.79-1.29-1.8-2.46-2.88-3.54c-2.2-2.15-4.64-4.1-7.33-5.61c-2.69-1.52-5.58-2.67-8.55-3.57c-2.97-0.9-5.95-1.77-9.04-1.97
				c-3.08-0.27-6.18-0.02-9.2,0.54c-3.01,0.6-5.96,1.55-8.65,3c-5.43,2.82-9.31,7.91-11.57,13.38c-1.15,2.74-1.91,5.62-2.26,8.49
				c-0.35,2.87-0.32,5.73,0.16,8.41c0.48,2.68,1.39,5.14,2.68,7.22c1.29,2.08,2.94,3.72,4.95,5.08c4.03,2.75,9.46,4.17,15.2,5.75
				c1.44,0.41,2.92,0.81,4.41,1.26l4.35,1.28l4.44,1.31l2.21,0.64c0.27,0.09,0.97,0.23,1.52,0.44c0.57,0.2,1.11,0.47,1.63,0.77
				c2.05,1.23,3.51,3.23,4.08,5.4c0.14,0.54,0.23,1.1,0.26,1.65c0.05,0.58-0.02,1-0.03,1.49c-0.1,0.87-0.2,1.69-0.33,2.48
				c-0.51,3.17-1.11,6.21-1.48,9.29c-0.34,3.06-0.59,6.2-0.54,9.1c0,0.37,0.04,0.69,0.07,1.02c0.03,0.32,0.08,0.52,0.16,0.79
				c0.16,0.51,0.43,1.01,0.76,1.46c0.66,0.9,1.69,1.59,2.44,1.66c0.38,0.04,0.62-0.02,0.83-0.16c0.05-0.02,0.87-0.7,1.42-1.14
				c1.19-0.97,2.36-1.96,3.53-2.96l7.02-6.11c2.36-2.05,4.79-4.12,7.41-6.07c2.61-1.96,5.45-3.8,8.56-5.29
				c3.09-1.52,6.44-2.65,9.84-3.35c0.85-0.19,1.7-0.35,2.55-0.46c0.86-0.15,1.71-0.24,2.56-0.33c0.86-0.1,1.7-0.14,2.55-0.19
				c0.42-0.01,0.85-0.08,1.27-0.02l1.26,0.17c3.35,0.5,6.57,1.23,9.69,2.14C146.95,85.51,149.99,86.5,153.05,87.31z"/>
		</g>
		<g>
			<g>
				<circle style="fill:#050528;" cx="103.1" cy="124.83" r="4.4"/>
			</g>
			<g>
				<circle style="fill:#050528;" cx="139.99" cy="124.83" r="4.4"/>
			</g>
		</g>
		<g>
			<g>
				<path style="fill:#050528;" d="M121.55,158.8c-0.96-0.36-1.81-0.76-2.67-1.11c-0.89-0.3-1.71-0.64-2.54-0.88
					c-0.86-0.19-1.61-0.5-2.43-0.57c-0.4-0.05-0.78-0.13-1.15-0.2l-1.12-0.05c-0.71-0.09-1.43,0.05-2.07,0.06
					c-0.67,0.18-1.28,0.16-1.88,0.41c-1.19,0.31-2.27,0.9-3.31,1.46c-2.07,1.28-4.03,2.97-5.91,5.02c-0.23,0.27-0.45,0.55-0.69,0.8
					l-0.8,0.88c-0.74,0.82-1.54,1.61-2.4,2.39c-1.74,1.54-3.76,3-6.28,4.15c-2.48,1.15-5.67,1.9-9,1.63
					c-0.83-0.04-1.64-0.24-2.46-0.39c-0.79-0.2-1.58-0.45-2.33-0.75c-1.46-0.62-2.84-1.4-3.94-2.25c-2.16-1.64-3.87-3.57-5.24-5.72
					c-1.35-2.15-2.36-4.55-2.84-7.11c-0.49-2.55-0.45-5.29,0.27-7.81c0.37-1.25,0.84-2.45,1.48-3.53c0.28-0.54,0.69-1.08,1.06-1.6
					l0.67-0.92c0.29-0.32,0.5-0.51,0.75-0.73c0.98-0.8,2.02-1.47,3.19-1.97c1.17-0.47,2.43-0.82,3.72-0.76
					c1.27,0.04,2.49,0.36,3.44,0.99c0.49,0.26,0.88,0.68,1.26,1.01c0.36,0.38,0.65,0.81,0.93,1.21c-2.01-0.24-3.7,0.23-4.59,1.13
					c-0.46,0.43-0.81,0.95-1.1,1.51c-0.28,0.55-0.53,1.15-0.67,1.74c-0.02,0.14-0.07,0.3-0.04,0.35c0.03-0.03,0.08-0.11,0.09-0.11
					l0,0.06l0,0.11l0,0.22c0,0.3-0.03,0.54,0.01,0.87c0.02,0.6,0.09,1.15,0.23,1.67c0.29,1.03,0.73,1.93,1.31,2.78
					c1.14,1.68,2.94,3.25,4.57,4.01c0.73,0.3,1,0.26,1.25,0.2c0.06-0.02,0.13-0.01,0.22-0.04c0.07,0,0.19-0.05,0.29-0.08
					c0.11-0.01,0.26-0.1,0.4-0.11l0.5-0.22c0.74-0.33,1.7-0.91,2.7-1.66c0.51-0.36,1.01-0.8,1.54-1.24l1.13-0.98l1.25-1.05
					c3.44-2.7,7.67-4.92,12.44-5.76c2.4-0.35,4.88-0.46,7.28,0.11l0.89,0.18c0.29,0.08,0.58,0.18,0.87,0.27
					c0.57,0.19,1.14,0.37,1.69,0.59l1.57,0.8c0.52,0.25,1.01,0.55,1.46,0.9l1.34,1c0.4,0.38,0.81,0.74,1.18,1.14
					c0.79,0.74,1.39,1.61,2,2.45c0.59,0.84,1.03,1.78,1.49,2.65C120.95,156.91,121.29,157.85,121.55,158.8z"/>
			</g>
			<g>
				<path style="fill:#050528;" d="M121.55,158.8c0.26-0.95,0.6-1.89,0.98-2.83c0.46-0.87,0.9-1.81,1.49-2.65
					c0.61-0.83,1.21-1.71,2-2.45c0.38-0.39,0.78-0.76,1.18-1.14l1.34-1c0.45-0.35,0.94-0.64,1.46-0.9l1.57-0.8
					c0.55-0.22,1.11-0.4,1.69-0.59c0.29-0.09,0.57-0.19,0.87-0.27l0.89-0.18c2.4-0.56,4.88-0.45,7.28-0.11
					c4.78,0.83,9,3.06,12.44,5.76l1.25,1.05l1.13,0.98c0.53,0.44,1.03,0.88,1.54,1.24c1,0.75,1.96,1.33,2.7,1.66l0.5,0.22
					c0.14,0.02,0.29,0.11,0.4,0.11c0.11,0.02,0.22,0.08,0.29,0.08c0.09,0.04,0.16,0.03,0.22,0.04c0.25,0.07,0.52,0.11,1.25-0.2
					c1.63-0.76,3.43-2.33,4.57-4.01c0.58-0.85,1.02-1.75,1.31-2.78c0.14-0.52,0.21-1.07,0.23-1.67c0.04-0.32,0.01-0.57,0.01-0.87
					l0-0.22l0-0.11l0-0.06c0.01,0,0.06,0.07,0.09,0.11c0.04-0.05-0.02-0.22-0.04-0.35c-0.13-0.59-0.38-1.19-0.67-1.74
					c-0.28-0.56-0.64-1.08-1.1-1.51c-0.89-0.89-2.58-1.36-4.59-1.13c0.27-0.4,0.57-0.83,0.93-1.21c0.38-0.34,0.77-0.75,1.26-1.01
					c0.95-0.63,2.17-0.94,3.44-0.99c1.3-0.06,2.55,0.3,3.72,0.76c1.17,0.49,2.2,1.16,3.19,1.97c0.26,0.22,0.47,0.41,0.75,0.73
					l0.67,0.92c0.37,0.52,0.78,1.06,1.06,1.6c0.64,1.08,1.11,2.28,1.48,3.53c0.73,2.52,0.77,5.26,0.27,7.81
					c-0.49,2.57-1.49,4.96-2.84,7.11c-1.37,2.15-3.08,4.08-5.24,5.72c-1.1,0.84-2.47,1.63-3.94,2.25c-0.75,0.29-1.54,0.54-2.33,0.75
					c-0.81,0.15-1.63,0.36-2.46,0.39c-3.33,0.28-6.52-0.48-9-1.63c-2.52-1.15-4.54-2.61-6.28-4.15c-0.87-0.78-1.67-1.56-2.4-2.39
					l-0.8-0.88c-0.24-0.26-0.46-0.53-0.69-0.8c-1.89-2.06-3.85-3.74-5.91-5.02c-1.04-0.57-2.12-1.15-3.31-1.46
					c-0.6-0.25-1.21-0.23-1.88-0.41c-0.65-0.01-1.36-0.15-2.07-0.06l-1.12,0.05c-0.37,0.07-0.75,0.14-1.15,0.2
					c-0.82,0.07-1.57,0.38-2.43,0.57c-0.83,0.24-1.65,0.58-2.54,0.88C123.36,158.04,122.5,158.44,121.55,158.8z"/>
			</g>
		</g>
	</g>
	<rect x="-0.34" y="-0.54" style="display:inline;fill:#FCC91E;" width="250.54" height="250.54"/>
	<g style="display:inline;">
		<text transform="matrix(1 0 0 1 50.4135 253.7459)" style="fill:#050528; font-family:'Gobold'; font-size:48px;">duChef</text>
		<g>
			<g>
				<path style="fill:#050528;" d="M151.68,93.15c-2.97-0.56-5.98-0.8-8.95-0.71c-2.96,0.12-5.83,0.47-8.55,0.83
					c-2.73,0.39-5.37,0.74-7.93,1.53c-2.55,0.79-5.02,1.92-7.52,3.28c-2.48,1.39-4.99,3.03-7.61,4.72
					c-2.61,1.71-5.35,3.44-8.24,5.02c-2.88,1.6-5.92,3-9.05,4.15l-2.36,0.81l-2.39,0.71l-0.15,0.04l-0.23,0.06l-0.46,0.11
					c-0.31,0.08-0.62,0.13-0.94,0.16c-0.63,0.09-1.28,0.08-1.91,0.03c-1.27-0.1-2.51-0.48-3.6-1.06c-2.2-1.16-3.9-3.16-4.65-5.51
					c-0.18-0.58-0.32-1.18-0.38-1.78c-0.09-0.65-0.05-1.05-0.07-1.57c0.02-0.92,0.08-1.77,0.16-2.59c0.33-3.27,0.8-6.35,1.24-9.44
					c0.43-3.05,0.93-6.19,1.12-9.01c0.03-0.37,0.02-0.65,0.03-0.93c0-0.28-0.02-0.46-0.05-0.69c-0.08-0.44-0.25-0.86-0.5-1.24
					c-0.49-0.78-1.33-1.34-2.29-1.55l-2.32-0.44l-1.16-0.23c-0.39-0.05-0.79-0.04-1.18-0.05l-4.75-0.14l-2.4-0.08l-2.41-0.13
					c-1.59-0.1-3.19-0.21-4.82-0.37c-3.25-0.37-6.61-0.88-10.01-1.98c-3.4-1.07-6.86-2.79-9.95-5.39c-1.51-1.31-3.05-2.75-4.11-4.53
					c-1.05-1.79-1.81-3.61-2.4-5.51c-1.19-3.78-1.5-7.7-1.1-11.4c0.8-7.43,4.09-14,8.66-19.14c2.29-2.57,4.95-4.79,7.87-6.52
					c2.95-1.72,6.13-2.92,9.32-3.57c6.4-1.4,12.9-1.16,19.07,0.16c6.19,1.28,12.07,3.84,17.19,7.44c2.53,1.84,4.96,3.86,6.85,6.39
					c0.92,1.27,1.72,2.68,2.06,4.25c0.37,1.56,0.14,3.31-0.8,4.68c-0.93,1.36-2.39,2.3-3.97,2.73c-1.58,0.45-3.28,0.41-4.87-0.01
					c-1.59-0.42-3.08-1.25-4.31-2.35c-1.22-1.12-2.24-2.46-2.97-3.93c-0.75-1.47-1.24-3.05-1.59-4.64
					c-0.35-1.59-0.53-3.22-0.59-4.84c-0.09-3.24,0.19-6.47,0.74-9.64c1.14-6.43,3.92-12.64,8-17.93c4.08-5.3,9.55-9.66,15.95-12.37
					c1.6-0.68,3.25-1.25,4.95-1.69c0.85-0.23,1.71-0.43,2.58-0.56c0.88-0.07,1.76-0.16,2.64-0.17c3.52-0.11,7.05,0.31,10.35,1.33
					c6.66,1.94,12.55,5.88,16.93,10.84c2.21,2.47,4.07,5.2,5.6,8.05c1.55,2.85,2.71,5.87,3.71,8.88c0.98,3.03,1.71,6.16,1.9,9.37
					c0.21,3.17-0.16,6.56-1.91,9.36c-0.85,1.38-1.97,2.64-3.27,3.57c-1.28,0.94-2.71,1.8-4.38,2.13c-0.83,0.16-1.72,0.16-2.56-0.11
					c-0.84-0.26-1.58-0.8-2.13-1.44c-1.12-1.3-1.62-2.92-1.89-4.5c-1.01-6.37,1.46-13,6.06-17.59c4.62-4.62,10.71-7.41,16.91-9.18
					c3.15-0.85,6.3-1.51,9.69-1.72c3.36-0.22,6.82,0.07,10.21,0.93c3.37,0.89,6.68,2.35,9.6,4.5c2.92,2.12,5.49,4.88,7.34,8.08
					c1.87,3.19,3.09,6.77,3.56,10.39c0.23,1.81,0.35,3.64,0.27,5.44c-0.06,1.79-0.24,3.6-0.63,5.4c-0.37,1.8-0.92,3.56-1.62,5.27
					c-0.73,1.69-1.58,3.33-2.59,4.85c-0.99,1.53-2.14,2.94-3.36,4.24c-1.23,1.29-2.51,2.51-3.89,3.58
					c-5.49,4.31-11.67,6.99-17.83,9.04c-1.54,0.51-3.09,0.98-4.65,1.41l-1.16,0.32l-0.35,0.1c-0.09,0.04-0.18,0.06-0.26,0.1
					c-0.34,0.15-0.67,0.36-0.93,0.64c-0.27,0.27-0.48,0.6-0.63,0.96c-0.08,0.19-0.12,0.35-0.16,0.58l-0.15,1.04l-0.67,4.63
					l-0.62,4.63c-0.1,0.77-0.21,1.54-0.29,2.32l-0.13,1.19l-0.1,0.78c-0.05,0.27-0.12,0.55-0.19,0.83c-0.58,2.22-2.14,4.17-4.11,5.3
					C156.27,93.22,153.9,93.59,151.68,93.15z M153.08,87.2c0.82,0.25,1.72,0.27,2.49-0.09c0.77-0.35,1.34-0.99,1.6-1.77l0.08-0.31
					l0.05-0.38l0.14-1.13c0.1-0.77,0.17-1.55,0.25-2.32l0.47-4.65l0.42-4.65l0.12-1.28c0.06-0.54,0.18-1.14,0.36-1.69
					c0.35-1.12,0.92-2.17,1.68-3.06c0.75-0.91,1.69-1.65,2.73-2.2c0.26-0.14,0.53-0.26,0.8-0.38l0.76-0.28l1.06-0.37
					c1.41-0.53,2.8-1.09,4.17-1.68c5.44-2.42,10.5-5.55,14.47-9.38c3.98-3.83,6.69-8.32,7.79-13.3c0.54-2.48,0.79-5.2,0.56-7.74
					c-0.25-2.55-0.84-5.05-1.95-7.33c-2.17-4.58-6.23-8.36-11.35-10.41c-2.54-1.05-5.32-1.7-8.18-1.91
					c-2.83-0.22-5.9-0.06-8.84,0.36c-2.96,0.43-5.9,1.12-8.69,2.21c-2.79,1.08-5.48,2.49-7.77,4.41c-2.31,1.9-4.23,4.31-5.35,7.12
					c-1.12,2.79-1.54,5.93-1.07,8.9c0.26,1.47,0.76,2.93,1.7,4c0.47,0.52,1.05,0.93,1.7,1.12c0.65,0.19,1.36,0.19,2.05,0.05
					c1.4-0.3,2.72-1.09,3.91-1.99c1.2-0.91,2.3-1.92,3.05-3.22c1.51-2.58,1.82-5.71,1.43-8.69c-0.4-3-1.41-5.91-2.64-8.7
					c-2.45-5.6-6.03-10.61-10.47-14.43c-4.44-3.83-9.78-6.3-15.29-7.1c-5.56-0.85-10.9-0.14-16.24,1.26
					C98.46-0.6,89.27,8.66,85.97,20.09c-0.87,2.89-1.55,5.85-1.74,8.84c-0.19,2.98,0.05,6.02,1.19,8.74
					c0.56,1.36,1.34,2.62,2.37,3.66c1.03,1.03,2.3,1.83,3.69,2.29c1.39,0.45,2.92,0.57,4.36,0.24c1.43-0.31,2.82-1.06,3.68-2.27
					c0.87-1.19,1.15-2.77,0.85-4.25c-0.28-1.49-1.04-2.87-1.93-4.12c-1.83-2.49-4.26-4.49-6.8-6.24c-2.57-1.73-5.35-3.13-8.25-4.19
					c-2.89-1.08-5.89-1.85-8.92-2.32c-6.06-0.9-12.35-0.47-17.93,1.63c-1.39,0.53-2.73,1.15-3.99,1.88
					c-1.26,0.72-2.43,1.52-3.51,2.46c-2.14,1.89-3.98,4.09-5.38,6.54c-2.85,4.84-4.14,10.47-3.7,15.51c0.25,2.52,0.87,4.87,1.95,6.9
					c0.51,1.01,1.18,1.98,1.84,2.79c0.67,0.81,1.18,1.74,1.94,2.56c2.97,3.27,8.02,5.87,13.62,8.03c1.4,0.56,2.84,1.09,4.3,1.62
					l2.17,0.79l2.2,0.75l4.46,1.41c0.37,0.11,0.74,0.25,1.12,0.32c0.38,0.05,0.77,0.09,1.15,0.13l2.3,0.24
					c2.12,0.23,4.2,1.32,5.57,3.04c0.69,0.85,1.22,1.85,1.54,2.92c0.15,0.52,0.27,1.11,0.31,1.61c0.04,0.49,0.07,0.99,0.06,1.4
					c-0.02,3.41-0.33,6.45-0.57,9.59c-0.25,3.1-0.53,6.2-0.6,9.15c-0.02,0.73-0.01,1.44,0.02,2.08c0.05,0.66,0.12,0.93,0.25,1.24
					c0.26,0.61,0.8,1.09,1.38,1.32c0.29,0.11,0.59,0.17,0.87,0.15c0.14-0.02,0.28-0.02,0.42-0.06c0.07-0.01,0.14-0.03,0.2-0.06
					l0.1-0.04l0.05-0.02l0.13-0.05l2.03-0.82l1.99-0.9c2.62-1.24,5.12-2.72,7.57-4.34c2.45-1.63,4.85-3.42,7.35-5.27
					c2.49-1.87,5.1-3.79,7.99-5.55c5.73-3.56,12.88-6.19,19.86-6.23c3.49-0.02,6.87,0.61,10.09,1.42
					C146.87,85.45,149.97,86.4,153.08,87.2z"/>
			</g>
			<g>
				<g>
					<circle style="fill:#050528;" cx="103.1" cy="124.83" r="4.4"/>
				</g>
				<g>
					<circle style="fill:#050528;" cx="139.99" cy="124.83" r="4.4"/>
				</g>
			</g>
			<g>
				<g>
					<path style="fill:#050528;" d="M121.55,158.8c-0.96-0.36-1.81-0.76-2.67-1.11c-0.89-0.3-1.71-0.64-2.54-0.88
						c-0.86-0.19-1.61-0.5-2.43-0.57c-0.4-0.05-0.78-0.13-1.15-0.2l-1.12-0.05c-0.71-0.09-1.43,0.05-2.07,0.06
						c-0.67,0.18-1.28,0.16-1.88,0.41c-1.19,0.31-2.27,0.9-3.31,1.46c-2.07,1.28-4.03,2.97-5.91,5.02c-0.23,0.27-0.45,0.55-0.69,0.8
						l-0.8,0.88c-0.74,0.82-1.54,1.61-2.4,2.39c-1.74,1.54-3.76,3-6.28,4.15c-2.48,1.15-5.67,1.9-9,1.63
						c-0.83-0.04-1.64-0.24-2.46-0.39c-0.79-0.2-1.58-0.45-2.33-0.75c-1.46-0.62-2.84-1.4-3.94-2.25c-2.16-1.64-3.87-3.57-5.24-5.72
						c-1.35-2.15-2.36-4.55-2.84-7.11c-0.49-2.55-0.45-5.29,0.27-7.81c0.37-1.25,0.84-2.45,1.48-3.53c0.28-0.54,0.69-1.08,1.06-1.6
						l0.67-0.92c0.29-0.32,0.5-0.51,0.75-0.73c0.98-0.8,2.02-1.47,3.19-1.97c1.17-0.47,2.43-0.82,3.72-0.76
						c1.27,0.04,2.49,0.36,3.44,0.99c0.49,0.26,0.88,0.68,1.26,1.01c0.36,0.38,0.65,0.81,0.93,1.21c-2.01-0.24-3.7,0.23-4.59,1.13
						c-0.46,0.43-0.81,0.95-1.1,1.51c-0.28,0.55-0.53,1.15-0.67,1.74c-0.02,0.14-0.07,0.3-0.04,0.35c0.03-0.03,0.08-0.11,0.09-0.11
						l0,0.06l0,0.11l0,0.22c0,0.3-0.03,0.54,0.01,0.87c0.02,0.6,0.09,1.15,0.23,1.67c0.29,1.03,0.73,1.93,1.31,2.78
						c1.14,1.68,2.94,3.25,4.57,4.01c0.73,0.3,1,0.26,1.25,0.2c0.06-0.02,0.13-0.01,0.22-0.04c0.07,0,0.19-0.05,0.29-0.08
						c0.11-0.01,0.26-0.1,0.4-0.11l0.5-0.22c0.74-0.33,1.7-0.91,2.7-1.66c0.51-0.36,1.01-0.8,1.54-1.24l1.13-0.98l1.25-1.05
						c3.44-2.7,7.67-4.92,12.44-5.76c2.4-0.35,4.88-0.46,7.28,0.11l0.89,0.18c0.29,0.08,0.58,0.18,0.87,0.27
						c0.57,0.19,1.14,0.37,1.69,0.59l1.57,0.8c0.52,0.25,1.01,0.55,1.46,0.9l1.34,1c0.4,0.38,0.81,0.74,1.18,1.14
						c0.79,0.74,1.39,1.61,2,2.45c0.59,0.84,1.03,1.78,1.49,2.65C120.95,156.91,121.29,157.85,121.55,158.8z"/>
				</g>
				<g>
					<path style="fill:#050528;" d="M121.55,158.8c0.26-0.95,0.6-1.89,0.98-2.83c0.46-0.87,0.9-1.81,1.49-2.65
						c0.61-0.83,1.21-1.71,2-2.45c0.38-0.39,0.78-0.76,1.18-1.14l1.34-1c0.45-0.35,0.94-0.64,1.46-0.9l1.57-0.8
						c0.55-0.22,1.11-0.4,1.69-0.59c0.29-0.09,0.57-0.19,0.87-0.27l0.89-0.18c2.4-0.56,4.88-0.45,7.28-0.11
						c4.78,0.83,9,3.06,12.44,5.76l1.25,1.05l1.13,0.98c0.53,0.44,1.03,0.88,1.54,1.24c1,0.75,1.96,1.33,2.7,1.66l0.5,0.22
						c0.14,0.02,0.29,0.11,0.4,0.11c0.11,0.02,0.22,0.08,0.29,0.08c0.09,0.04,0.16,0.03,0.22,0.04c0.25,0.07,0.52,0.11,1.25-0.2
						c1.63-0.76,3.43-2.33,4.57-4.01c0.58-0.85,1.02-1.75,1.31-2.78c0.14-0.52,0.21-1.07,0.23-1.67c0.04-0.32,0.01-0.57,0.01-0.87
						l0-0.22l0-0.11l0-0.06c0.01,0,0.06,0.07,0.09,0.11c0.04-0.05-0.02-0.22-0.04-0.35c-0.13-0.59-0.38-1.19-0.67-1.74
						c-0.28-0.56-0.64-1.08-1.1-1.51c-0.89-0.89-2.58-1.36-4.59-1.13c0.27-0.4,0.57-0.83,0.93-1.21c0.38-0.34,0.77-0.75,1.26-1.01
						c0.95-0.63,2.17-0.94,3.44-0.99c1.3-0.06,2.55,0.3,3.72,0.76c1.17,0.49,2.2,1.16,3.19,1.97c0.26,0.22,0.47,0.41,0.75,0.73
						l0.67,0.92c0.37,0.52,0.78,1.06,1.06,1.6c0.64,1.08,1.11,2.28,1.48,3.53c0.73,2.52,0.77,5.26,0.27,7.81
						c-0.49,2.57-1.49,4.96-2.84,7.11c-1.37,2.15-3.08,4.08-5.24,5.72c-1.1,0.84-2.47,1.63-3.94,2.25
						c-0.75,0.29-1.54,0.54-2.33,0.75c-0.81,0.15-1.63,0.36-2.46,0.39c-3.33,0.28-6.52-0.48-9-1.63c-2.52-1.15-4.54-2.61-6.28-4.15
						c-0.87-0.78-1.67-1.56-2.4-2.39l-0.8-0.88c-0.24-0.26-0.46-0.53-0.69-0.8c-1.89-2.06-3.85-3.74-5.91-5.02
						c-1.04-0.57-2.12-1.15-3.31-1.46c-0.6-0.25-1.21-0.23-1.88-0.41c-0.65-0.01-1.36-0.15-2.07-0.06l-1.12,0.05
						c-0.37,0.07-0.75,0.14-1.15,0.2c-0.82,0.07-1.57,0.38-2.43,0.57c-0.83,0.24-1.65,0.58-2.54,0.88
						C123.36,158.04,122.5,158.44,121.55,158.8z"/>
				</g>
			</g>
		</g>
	</g>
</g>
<g id="Layer_4">
	<rect style="fill:#FCC91E;" width="250" height="250"/>
	<g>
		<g>
			<path style="fill:#050528;" d="M78.95,193.06h7.51c4.33,0,6.49,2.1,6.49,6.29v17.31c0,4.17-2.27,6.26-6.81,6.27h-7.2V193.06z
				 M83.83,197.3v21.38h2.14c1.41,0,2.12-0.67,2.12-2.02v-17.31c0-1.37-0.71-2.05-2.12-2.05H83.83z"/>
			<path style="fill:#050528;" d="M110.93,217.19c0,4.18-2.34,6.28-7.01,6.29c-4.66,0-6.99-2.1-6.99-6.29v-24.08h4.88v24.08
				c0,1.34,0.71,2.02,2.12,2.02c1.42,0,2.14-0.67,2.14-2.02v-24.08h4.88V217.19z"/>
			<path style="fill:#050528;" d="M128.9,216.37c0,4.73-2.34,7.1-7.01,7.12c-4.66,0-6.99-2.37-6.99-7.12v-20.67
				c0-4.73,2.33-7.1,6.99-7.1c4.67,0,7.01,2.37,7.01,7.1v4.55h-4.88v-4.55c0-1.52-0.71-2.28-2.12-2.29h-0.03
				c-1.4,0-2.1,0.76-2.1,2.29v20.67c0,1.53,0.71,2.29,2.12,2.29c1.42,0,2.14-0.76,2.14-2.29v-4.55h4.88V216.37z"/>
			<path style="fill:#050528;" d="M132.86,193.06h4.88v12.8h4.26v-12.8h4.88v29.87h-4.88v-12.8h-4.26v12.8h-4.88V193.06z"/>
			<path style="fill:#050528;" d="M151.34,193.06h12.65v4.24h-7.77v8.56h6.68v4.27h-6.68v8.55h7.77v4.26h-12.65V193.06z"/>
			<path style="fill:#050528;" d="M167.61,193.06h12.65v4.24h-7.77v8.56h6.68v4.27h-6.68v12.8h-4.88V193.06z"/>
		</g>
		<g>
			<g>
				<path style="fill:#050528;" d="M151.15,104.88c-2.18-0.41-4.4-0.59-6.58-0.52c-2.18,0.09-4.28,0.34-6.29,0.61
					c-2,0.29-3.95,0.55-5.83,1.12c-1.88,0.58-3.69,1.41-5.53,2.41c-1.83,1.02-3.67,2.23-5.59,3.47c-1.92,1.26-3.93,2.53-6.06,3.69
					c-2.12,1.17-4.35,2.2-6.65,3.05l-1.74,0.6l-1.76,0.52l-0.11,0.03l-0.17,0.04l-0.34,0.08c-0.23,0.06-0.46,0.09-0.69,0.12
					c-0.46,0.06-0.94,0.06-1.41,0.02c-0.94-0.07-1.84-0.35-2.65-0.78c-1.61-0.85-2.87-2.32-3.42-4.05
					c-0.13-0.43-0.24-0.87-0.28-1.31c-0.07-0.48-0.04-0.77-0.05-1.16c0.01-0.68,0.06-1.3,0.12-1.9c0.24-2.4,0.58-4.67,0.91-6.94
					c0.32-2.25,0.69-4.55,0.83-6.63c0.02-0.27,0.02-0.47,0.02-0.69c0-0.2-0.02-0.34-0.04-0.51c-0.06-0.32-0.19-0.63-0.37-0.91
					c-0.36-0.57-0.98-0.99-1.68-1.14l-1.71-0.32l-0.85-0.17c-0.29-0.04-0.58-0.03-0.87-0.04l-3.49-0.11l-1.76-0.06l-1.77-0.1
					c-1.17-0.07-2.35-0.16-3.55-0.27c-2.39-0.27-4.86-0.65-7.36-1.46c-2.5-0.79-5.04-2.05-7.32-3.96c-1.11-0.96-2.24-2.02-3.02-3.33
					c-0.78-1.32-1.33-2.65-1.77-4.05c-0.87-2.78-1.1-5.66-0.81-8.38c0.59-5.46,3.01-10.29,6.37-14.07c1.69-1.89,3.64-3.52,5.79-4.79
					c2.17-1.27,4.5-2.14,6.85-2.63c4.7-1.03,9.48-0.85,14.02,0.11c4.55,0.94,8.87,2.82,12.64,5.47c1.86,1.35,3.64,2.84,5.04,4.7
					c0.68,0.93,1.27,1.97,1.51,3.13c0.27,1.14,0.1,2.44-0.59,3.44c-0.69,1-1.76,1.69-2.92,2.01c-1.16,0.33-2.41,0.3-3.58,0
					c-1.17-0.31-2.26-0.92-3.17-1.73c-0.9-0.82-1.65-1.81-2.18-2.89c-0.55-1.08-0.91-2.24-1.17-3.41c-0.26-1.17-0.39-2.37-0.43-3.56
					c-0.07-2.38,0.14-4.76,0.54-7.08c0.84-4.72,2.88-9.29,5.88-13.18c3-3.89,7.02-7.1,11.72-9.1c1.17-0.5,2.39-0.92,3.64-1.24
					c0.62-0.17,1.26-0.31,1.9-0.41c0.65-0.05,1.29-0.12,1.94-0.12c2.59-0.08,5.18,0.23,7.6,0.98c4.89,1.43,9.23,4.32,12.45,7.97
					c1.62,1.82,2.99,3.82,4.12,5.92c1.14,2.1,1.99,4.31,2.72,6.52c0.72,2.23,1.25,4.53,1.4,6.89c0.16,2.33-0.12,4.82-1.41,6.88
					c-0.62,1.02-1.45,1.94-2.41,2.63c-0.94,0.69-1.99,1.32-3.22,1.57c-0.61,0.12-1.27,0.12-1.88-0.08
					c-0.62-0.19-1.16-0.59-1.57-1.06c-0.82-0.96-1.19-2.15-1.39-3.3c-0.75-4.68,1.07-9.56,4.45-12.93
					c3.39-3.39,7.87-5.44,12.43-6.75c2.32-0.62,4.63-1.11,7.13-1.26c2.47-0.16,5.01,0.05,7.5,0.69c2.48,0.65,4.91,1.73,7.06,3.31
					c2.15,1.56,4.03,3.59,5.39,5.94c1.37,2.34,2.27,4.97,2.62,7.64c0.17,1.33,0.26,2.67,0.2,4c-0.05,1.32-0.17,2.65-0.46,3.97
					c-0.27,1.32-0.68,2.62-1.19,3.88c-0.53,1.24-1.16,2.45-1.9,3.57c-0.73,1.13-1.57,2.16-2.47,3.11c-0.9,0.95-1.85,1.84-2.86,2.63
					c-4.04,3.17-8.58,5.14-13.1,6.64c-1.13,0.38-2.27,0.72-3.42,1.04l-0.86,0.24l-0.25,0.07c-0.06,0.03-0.13,0.04-0.19,0.07
					c-0.25,0.11-0.49,0.27-0.69,0.47c-0.2,0.2-0.36,0.44-0.46,0.71c-0.06,0.14-0.09,0.26-0.12,0.43l-0.11,0.76l-0.49,3.4l-0.46,3.4
					c-0.07,0.57-0.16,1.13-0.22,1.7l-0.1,0.87l-0.07,0.57c-0.04,0.2-0.09,0.41-0.14,0.61c-0.43,1.63-1.57,3.07-3.02,3.89
					C154.53,104.94,152.78,105.2,151.15,104.88z M152.18,100.51c0.6,0.19,1.27,0.2,1.83-0.07c0.57-0.26,0.98-0.73,1.17-1.3
					l0.06-0.23l0.03-0.28l0.1-0.83c0.07-0.57,0.12-1.14,0.18-1.71l0.34-3.41l0.31-3.42l0.08-0.94c0.05-0.4,0.13-0.84,0.26-1.24
					c0.26-0.82,0.68-1.59,1.23-2.25c0.55-0.67,1.24-1.21,2.01-1.62c0.19-0.1,0.39-0.19,0.59-0.28l0.56-0.2l0.78-0.27
					c1.04-0.39,2.06-0.8,3.06-1.24c4-1.78,7.72-4.08,10.63-6.9c2.92-2.82,4.92-6.11,5.73-9.78c0.4-1.83,0.58-3.82,0.41-5.69
					c-0.18-1.88-0.62-3.71-1.44-5.39c-1.6-3.36-4.58-6.15-8.34-7.66c-1.87-0.77-3.91-1.25-6.01-1.4c-2.08-0.16-4.33-0.04-6.5,0.27
					c-2.18,0.32-4.34,0.82-6.39,1.62c-2.05,0.79-4.02,1.83-5.71,3.24c-1.7,1.39-3.11,3.17-3.93,5.24c-0.82,2.05-1.13,4.36-0.79,6.54
					c0.19,1.08,0.56,2.16,1.25,2.94c0.35,0.38,0.77,0.68,1.25,0.83c0.48,0.14,1,0.14,1.51,0.03c1.03-0.22,2-0.8,2.88-1.47
					c0.88-0.67,1.69-1.41,2.24-2.36c1.11-1.89,1.34-4.2,1.05-6.39c-0.3-2.21-1.04-4.34-1.94-6.39c-1.8-4.12-4.43-7.8-7.69-10.61
					c-3.26-2.81-7.19-4.63-11.24-5.22c-4.09-0.62-8.01-0.11-11.94,0.93c-7.8,2.36-14.56,9.17-16.98,17.57
					c-0.64,2.12-1.14,4.3-1.28,6.5c-0.14,2.19,0.04,4.43,0.87,6.43c0.41,1,0.99,1.93,1.74,2.69c0.76,0.76,1.69,1.35,2.71,1.68
					c1.02,0.33,2.14,0.42,3.2,0.18c1.05-0.23,2.07-0.78,2.71-1.67c0.64-0.88,0.84-2.03,0.62-3.12c-0.21-1.1-0.77-2.11-1.42-3.03
					c-1.34-1.83-3.13-3.3-5-4.59c-1.89-1.27-3.93-2.3-6.06-3.08c-2.12-0.79-4.33-1.36-6.56-1.7c-4.45-0.66-9.08-0.34-13.18,1.2
					c-1.02,0.39-2.01,0.85-2.94,1.38c-0.92,0.53-1.79,1.12-2.58,1.81c-1.57,1.39-2.93,3-3.95,4.8c-2.1,3.56-3.04,7.7-2.72,11.4
					c0.18,1.85,0.64,3.58,1.43,5.07c0.38,0.74,0.87,1.45,1.35,2.05c0.49,0.59,0.87,1.28,1.43,1.88c2.18,2.41,5.9,4.32,10.01,5.9
					c1.03,0.41,2.09,0.8,3.16,1.19l1.59,0.58l1.62,0.55l3.28,1.04c0.27,0.08,0.55,0.18,0.83,0.23c0.28,0.04,0.56,0.06,0.85,0.1
					l1.69,0.17c1.56,0.17,3.09,0.97,4.1,2.24c0.51,0.63,0.9,1.36,1.13,2.15c0.11,0.39,0.2,0.82,0.22,1.19
					c0.03,0.36,0.05,0.73,0.04,1.03c-0.01,2.5-0.24,4.74-0.42,7.05c-0.18,2.28-0.39,4.56-0.44,6.73c-0.01,0.54-0.01,1.06,0.02,1.53
					c0.03,0.49,0.09,0.68,0.18,0.91c0.19,0.45,0.58,0.8,1.01,0.97c0.21,0.08,0.43,0.12,0.64,0.11c0.1-0.01,0.21-0.01,0.31-0.05
					c0.05-0.01,0.1-0.02,0.15-0.05l0.07-0.03l0.04-0.01l0.09-0.04l1.49-0.6l1.46-0.66c1.93-0.91,3.76-2,5.57-3.19
					c1.8-1.2,3.56-2.52,5.4-3.88c1.83-1.37,3.75-2.78,5.88-4.08c4.21-2.61,9.47-4.55,14.6-4.58c2.56-0.02,5.05,0.45,7.42,1.04
					C147.61,99.22,149.89,99.92,152.18,100.51z"/>
			</g>
			<g>
				<g>
					<circle style="fill:#050528;" cx="115.44" cy="128.17" r="3.24"/>
				</g>
				<g>
					<circle style="fill:#050528;" cx="142.56" cy="128.17" r="3.24"/>
				</g>
			</g>
			<g>
				<g>
					<path style="fill:#050528;" d="M129,153.14c-0.7-0.26-1.33-0.56-1.96-0.81c-0.66-0.22-1.26-0.47-1.87-0.65
						c-0.63-0.14-1.19-0.37-1.79-0.42c-0.29-0.04-0.57-0.1-0.84-0.14l-0.83-0.03c-0.52-0.07-1.05,0.04-1.52,0.05
						c-0.49,0.13-0.94,0.12-1.38,0.3c-0.87,0.23-1.67,0.66-2.43,1.07c-1.52,0.94-2.96,2.18-4.35,3.69c-0.17,0.2-0.33,0.4-0.51,0.59
						l-0.59,0.65c-0.54,0.6-1.13,1.18-1.77,1.75c-1.28,1.13-2.77,2.2-4.62,3.05c-1.82,0.84-4.17,1.4-6.62,1.19
						c-0.61-0.03-1.21-0.18-1.81-0.29c-0.58-0.15-1.16-0.33-1.71-0.55c-1.07-0.45-2.08-1.03-2.89-1.65c-1.59-1.2-2.85-2.62-3.85-4.2
						c-1-1.58-1.73-3.34-2.09-5.23c-0.36-1.88-0.33-3.89,0.2-5.74c0.27-0.92,0.61-1.8,1.09-2.6c0.21-0.4,0.5-0.8,0.78-1.18l0.5-0.67
						c0.21-0.24,0.37-0.38,0.55-0.54c0.72-0.59,1.48-1.08,2.34-1.44c0.86-0.34,1.78-0.6,2.74-0.56c0.93,0.03,1.83,0.26,2.53,0.73
						c0.36,0.19,0.65,0.5,0.93,0.74c0.26,0.28,0.48,0.6,0.68,0.89c-1.48-0.17-2.72,0.17-3.38,0.83c-0.34,0.32-0.6,0.7-0.81,1.11
						c-0.21,0.41-0.39,0.85-0.49,1.28c-0.01,0.1-0.05,0.22-0.03,0.26c0.02-0.02,0.06-0.08,0.07-0.08l0,0.04l0,0.08l0,0.16
						c0,0.22-0.02,0.4,0.01,0.64c0.02,0.44,0.07,0.85,0.17,1.23c0.21,0.76,0.54,1.42,0.96,2.05c0.83,1.23,2.16,2.39,3.36,2.95
						c0.54,0.22,0.73,0.19,0.92,0.15c0.05-0.01,0.1,0,0.16-0.03c0.05,0,0.14-0.04,0.22-0.06c0.08,0,0.19-0.07,0.29-0.08l0.37-0.16
						c0.55-0.24,1.25-0.67,1.99-1.22c0.38-0.27,0.75-0.59,1.14-0.91l0.83-0.72l0.92-0.77c2.53-1.98,5.63-3.62,9.15-4.23
						c1.77-0.25,3.59-0.33,5.35,0.08l0.65,0.13c0.21,0.06,0.43,0.13,0.64,0.2c0.42,0.14,0.84,0.27,1.24,0.43l1.15,0.59
						c0.38,0.19,0.74,0.4,1.07,0.66l0.99,0.74c0.3,0.28,0.59,0.55,0.87,0.83c0.58,0.54,1.02,1.19,1.47,1.8
						c0.44,0.62,0.76,1.31,1.1,1.95C128.56,151.75,128.81,152.44,129,153.14z"/>
				</g>
				<g>
					<path style="fill:#050528;" d="M129,153.14c0.19-0.7,0.44-1.39,0.72-2.08c0.34-0.64,0.66-1.33,1.1-1.95
						c0.45-0.61,0.89-1.26,1.47-1.8c0.28-0.29,0.57-0.56,0.87-0.83l0.99-0.74c0.33-0.26,0.69-0.47,1.07-0.66l1.15-0.59
						c0.4-0.16,0.82-0.3,1.24-0.43c0.21-0.07,0.42-0.14,0.64-0.2l0.65-0.13c1.76-0.41,3.59-0.33,5.35-0.08
						c3.51,0.61,6.62,2.25,9.15,4.23l0.92,0.77l0.83,0.72c0.39,0.32,0.76,0.65,1.14,0.91c0.74,0.55,1.44,0.98,1.99,1.22l0.37,0.16
						c0.1,0.01,0.21,0.08,0.29,0.08c0.08,0.02,0.16,0.06,0.22,0.06c0.07,0.03,0.11,0.02,0.16,0.03c0.19,0.05,0.38,0.08,0.92-0.15
						c1.2-0.56,2.52-1.71,3.36-2.95c0.42-0.63,0.75-1.29,0.96-2.05c0.1-0.38,0.16-0.79,0.17-1.23c0.03-0.24,0.01-0.42,0.01-0.64
						l0-0.16l0-0.08l0-0.04c0.01,0,0.04,0.05,0.07,0.08c0.03-0.04-0.01-0.16-0.03-0.26c-0.1-0.43-0.28-0.87-0.49-1.28
						c-0.21-0.41-0.47-0.79-0.81-1.11c-0.65-0.65-1.9-1-3.38-0.83c0.2-0.29,0.42-0.61,0.68-0.89c0.28-0.25,0.57-0.55,0.93-0.74
						c0.69-0.46,1.59-0.69,2.53-0.73c0.95-0.04,1.87,0.22,2.74,0.56c0.86,0.36,1.62,0.85,2.34,1.44c0.19,0.16,0.35,0.3,0.55,0.54
						l0.5,0.67c0.27,0.38,0.57,0.78,0.78,1.18c0.47,0.79,0.82,1.68,1.09,2.6c0.53,1.85,0.56,3.86,0.2,5.74
						c-0.36,1.89-1.1,3.65-2.09,5.23c-1.01,1.58-2.26,3-3.85,4.2c-0.81,0.62-1.82,1.2-2.89,1.65c-0.55,0.22-1.13,0.4-1.71,0.55
						c-0.6,0.11-1.2,0.26-1.81,0.29c-2.45,0.21-4.79-0.35-6.62-1.19c-1.85-0.85-3.34-1.92-4.62-3.05c-0.64-0.57-1.23-1.15-1.77-1.75
						l-0.59-0.65c-0.17-0.19-0.34-0.39-0.51-0.59c-1.39-1.51-2.83-2.75-4.35-3.69c-0.76-0.42-1.56-0.85-2.43-1.07
						c-0.44-0.19-0.89-0.17-1.38-0.3c-0.48-0.01-1-0.11-1.52-0.05l-0.83,0.03c-0.27,0.05-0.55,0.11-0.84,0.14
						c-0.6,0.05-1.15,0.28-1.79,0.42c-0.61,0.18-1.21,0.43-1.87,0.65C130.33,152.58,129.7,152.87,129,153.14z"/>
				</g>
			</g>
		</g>
	</g>
</g>
</svg>
